<?xml version="1.0" encoding="UTF-8"?>
<!DOCTYPE svg PUBLIC "-//W3C//DTD SVG 1.1//EN" "http://www.w3.org/Graphics/SVG/1.1/DTD/svg11.dtd">
<svg xmlns="http://www.w3.org/2000/svg" version="1.1" width="1280px" height="515px" style="shape-rendering:geometricPrecision; text-rendering:geometricPrecision; image-rendering:optimizeQuality; fill-rule:evenodd; clip-rule:evenodd" xmlns:xlink="http://www.w3.org/1999/xlink">
<g><path style="opacity:1" fill="#fefefe" d="M 39.5,40.5 C 72.4066,40.1708 105.24,40.5042 138,41.5C 149.574,115.516 161.24,189.516 173,263.5C 184.999,189.504 196.999,115.504 209,41.5C 241.76,40.5042 274.593,40.1708 307.5,40.5C 307.333,172.5 307.5,304.5 308,436.5C 328.347,304.573 348.18,172.573 367.5,40.5C 402.073,40.1706 436.573,40.5039 471,41.5C 490.015,168.585 509.348,295.585 529,422.5C 529.5,295.167 529.667,167.834 529.5,40.5C 557.502,40.3334 585.502,40.5 613.5,41C 662.377,44.1776 698.21,67.3443 721,110.5C 718.337,87.1981 715.504,63.8647 712.5,40.5C 738.833,40.5 765.167,40.5 791.5,40.5C 803.098,128.189 814.932,215.856 827,303.5C 839.494,215.873 851.661,128.206 863.5,40.5C 936.5,40.5 1009.5,40.5 1082.5,40.5C 1082.5,66.8333 1082.5,93.1667 1082.5,119.5C 1059.17,119.5 1035.83,119.5 1012.5,119.5C 1012.5,152.167 1012.5,184.833 1012.5,217.5C 1035.83,217.5 1059.17,217.5 1082.5,217.5C 1082.5,243.833 1082.5,270.167 1082.5,296.5C 1059.17,296.5 1035.83,296.5 1012.5,296.5C 1012.5,329.5 1012.5,362.5 1012.5,395.5C 1035.83,395.5 1059.17,395.5 1082.5,395.5C 1082.5,421.5 1082.5,447.5 1082.5,473.5C 1033.5,473.5 984.5,473.5 935.5,473.5C 935.667,343.5 935.5,213.5 935,83.5C 914.322,213.398 893.489,343.232 872.5,473C 842.262,473.828 812.095,473.662 782,472.5C 767,382.5 752,292.5 737,202.5C 737.125,244.513 721.291,279.013 689.5,306C 706.336,361.677 722.67,417.51 738.5,473.5C 713.158,473.833 687.825,473.5 662.5,472.5C 649.852,425.239 637.518,377.906 625.5,330.5C 619.217,330.992 613.051,331.992 607,333.5C 606.5,380.165 606.333,426.832 606.5,473.5C 557.167,473.5 507.833,473.5 458.5,473.5C 455.872,451.439 452.872,429.439 449.5,407.5C 429.268,406.174 409.102,406.174 389,407.5C 385.913,429.195 382.747,450.861 379.5,472.5C 329.504,473.5 279.504,473.833 229.5,473.5C 229.667,404.833 229.5,336.166 229,267.5C 216.958,336.085 205.458,404.752 194.5,473.5C 180.5,473.5 166.5,473.5 152.5,473.5C 141.099,404.427 129.266,335.427 117,266.5C 116.5,335.499 116.333,404.499 116.5,473.5C 90.8333,473.5 65.1667,473.5 39.5,473.5C 39.5,329.167 39.5,184.833 39.5,40.5 Z M 607.5,117.5 C 633.249,120.455 649.415,134.455 656,159.5C 661.545,182.382 659.878,204.716 651,226.5C 642.047,245.288 627.214,255.621 606.5,257.5C 606.172,210.761 606.505,164.095 607.5,117.5 Z M 419.5,155.5 C 427.555,216.276 434.888,277.276 441.5,338.5C 427.167,338.5 412.833,338.5 398.5,338.5C 404.99,277.426 411.99,216.426 419.5,155.5 Z"/></g>
<g><path style="opacity:1" fill="#fefefe" d="M 1096.5,40.5 C 1122.17,40.5 1147.83,40.5 1173.5,40.5C 1173.5,158.833 1173.5,277.167 1173.5,395.5C 1195.5,395.5 1217.5,395.5 1239.5,395.5C 1239.5,421.5 1239.5,447.5 1239.5,473.5C 1191.83,473.5 1144.17,473.5 1096.5,473.5C 1096.5,329.167 1096.5,184.833 1096.5,40.5 Z"/></g>
</svg>
